<svg xmlns="http://www.w3.org/2000/svg" viewBox="-10 -10 266 404" width="266" height="404" class="pr-diagram" role="img">
<title>CL_Members</title>
<style>
  :root { color-scheme: light dark; }
  .pr-diagram { font-family: var(--pr-font, ui-monospace, monospace); font-size: 12px; }
  .pr-box rect { fill: var(--pr-box-fill, #fdfdf6); stroke: var(--pr-stroke, #3b3b33); }
  .pr-container > rect { fill: var(--pr-container-fill, none); stroke: var(--pr-stroke, #3b3b33); stroke-dasharray: none; }
  .pr-note rect { fill: var(--pr-note-fill, #fbf6d9); stroke: var(--pr-stroke, #3b3b33); }
  text { fill: var(--pr-text, #1c1c14); }
  .pr-header { font-weight: 600; }
  .pr-abstract .pr-header { font-style: italic; }
  .pr-sep { stroke: var(--pr-stroke, #3b3b33); }
  .pr-edge { stroke: var(--pr-stroke, #3b3b33); fill: none; }
  .pr-edge-realization, .pr-edge-dependency, .pr-edge-attachment { stroke-dasharray: 6 4; }
</style>
<defs>
  <marker id="pr-tri" viewBox="0 0 14 12" refX="13" refY="6" markerWidth="14" markerHeight="12" orient="auto"><path d="M1,1 L13,6 L1,11 Z" fill="var(--pr-box-fill, #fdfdf6)" stroke="var(--pr-stroke, #3b3b33)"/></marker>
  <marker id="pr-diamond-filled" viewBox="0 0 16 10" refX="15" refY="5" markerWidth="16" markerHeight="10" orient="auto"><path d="M1,5 L8,1 L15,5 L8,9 Z" fill="var(--pr-stroke, #3b3b33)"/></marker>
  <marker id="pr-diamond" viewBox="0 0 16 10" refX="15" refY="5" markerWidth="16" markerHeight="10" orient="auto"><path d="M1,5 L8,1 L15,5 L8,9 Z" fill="var(--pr-box-fill, #fdfdf6)" stroke="var(--pr-stroke, #3b3b33)"/></marker>
  <marker id="pr-arrow" viewBox="0 0 12 12" refX="11" refY="6" markerWidth="12" markerHeight="12" orient="auto"><path d="M1,1 L11,6 L1,11" fill="none" stroke="var(--pr-stroke, #3b3b33)"/></marker>
</defs>
<g id="grammar.members" class="pr-container pr-classifier-namespace"><rect x="28" y="50" width="200" height="316"/><text class="pr-header" x="36" y="65">members</text></g>
<g id="grammar" class="pr-container pr-classifier-namespace"><rect x="10" y="10" width="236" height="374"/><text class="pr-header" x="18" y="25">grammar</text></g>
<g id="grammar.members.Members" class="pr-box pr-classifier-class"><rect x="46" y="90" width="164" height="258"/><text class="pr-header" x="56" y="112">Members</text><line class="pr-sep" x1="46" y1="122" x2="210" y2="122"/><text x="56" y="134">+ entity_body</text><text x="56" y="152">+ member</text><text x="56" y="170">+ member_separator</text><text x="56" y="188">+ colon_member</text><text x="56" y="206">+ visibility</text><text x="56" y="224">+ modifier</text><text x="56" y="242">+ method</text><text x="56" y="260">+ cpp_method_name</text><text x="56" y="278">+ parameter_list</text><text x="56" y="296">+ parameter</text><text x="56" y="314">+ attribute</text><text x="56" y="332">+ type</text></g>
</svg>
